<svg width="48" height="45" viewBox="0 0 48 45" fill="none" xmlns="http://www.w3.org/2000/svg">
<g clip-path="url(#clip0_2074_5021)">
<path d="M14.082 21.3438C15.8291 23.0967 17.7217 24.9961 19.8496 28.168L22.5889 25.4375L23.9326 26.7871L16.3184 34.376L24.3008 42.3828L22.6621 44.0176L14.6797 36.0098L7.12891 43.5362L5.78418 42.1875L18.1914 29.8213C16.1035 26.6084 14.1699 24.668 12.4639 22.9571L12.1953 22.6875L1.34473 33.502L0 32.1533L12.4697 19.7266L14.082 21.3438Z" fill="black"/>
<path d="M29.5488 1.05078C30.9277 2.16504 32.6592 3.56543 34.5801 5.87402L36.9209 2.98047L38.3555 4.14063L23.3555 22.6865L21.9199 21.5244L33.124 7.67383C31.2373 5.39453 29.5918 4.02539 28.2715 2.95606L18.5781 14.9395L17.1211 13.7598L28.251 0L29.5488 1.05078ZM43.5928 12.2969L33.7705 24.4404L36.1621 26.375L46.4082 13.708L47.8672 14.8877L36.165 29.3535L30.9023 25.0967L40.7431 12.9316L38.4873 11.1074L28.6279 23.2949L27.1924 22.1338L38.4883 8.16895L43.5928 12.2969Z" fill="black"/>
</g>
<defs>
<clipPath id="clip0_2074_5021">
<rect width="47.8672" height="44.0176" fill="white"/>
</clipPath>
</defs>
</svg>
