<svg width="77" height="91" viewBox="0 0 77 91" fill="none" xmlns="http://www.w3.org/2000/svg">
<g clip-path="url(#clip0_2074_5016)">
<path d="M13.3174 90.7012L11.1641 90.3672C12.9639 85.2227 12.919 81.0078 11.5576 77.4014L5.83009 84.3105L4.1338 83.1475L10.7529 75.5977C10.0401 74.2402 9.14064 72.9648 8.08692 71.7617L1.34473 78.4834L0 77.1338L8.36133 68.8008C13.6543 74.1533 16.709 80.8281 13.3174 90.7012ZM18.6319 69.6875L21.6211 66.71L22.9854 68.0791L19.9981 71.0576L29.5303 80.6201L27.9121 82.2334L9.53031 63.79L11.1475 62.1777L18.6319 69.6875Z" fill="black"/>
<path d="M32.4023 71.1992L30.2246 71.0957C31.4658 65.7871 30.9727 61.5996 29.2334 58.1582L24.2734 65.6406L22.4619 64.665L28.2402 56.4502C27.3877 55.1748 26.3564 54.0029 25.1807 52.9189L19.1895 60.3232L17.709 59.125L25.1357 49.9453C30.9727 54.7031 34.7236 61.0156 32.4023 71.1992ZM35.4482 49.7295L38.1016 46.4492L39.6045 47.666L36.9521 50.9453L47.4531 59.4424L46.0166 61.2197L25.7637 44.8359L27.2002 43.0586L35.4482 49.7295Z" fill="black"/>
<path d="M48.9253 25.9269C52.188 28.0284 52.4839 32.3282 50.063 36.6564L54.6675 39.6212L60.5493 30.4864L62.1753 31.5323L49.271 51.5753L47.645 50.5284L53.4477 41.5167L48.8423 38.5509C45.8999 42.5265 41.8706 44.0235 38.6216 41.9327C35.1733 39.712 35.0639 34.9054 38.0356 30.2364C41.0571 25.5978 45.479 23.7071 48.9253 25.9269ZM39.8267 40.0597C42.3618 41.6935 45.6518 40.1544 47.9595 36.6241C50.2173 33.0636 50.2563 29.4308 47.7212 27.7989C45.2593 26.213 41.9194 27.7208 39.6372 31.2667C37.354 34.8126 37.3638 38.4757 39.8267 40.0597Z" fill="black"/>
<path d="M68.5186 4.17188L57.8838 25.4258L56.2061 24.586L61.0059 14.9961L58.5166 13.749L55.1328 20.5108L45.6719 15.7774L53.5664 0L55.2168 0.82617L48.3594 14.5322L50.5869 15.6475L57.1309 2.5703L58.7285 3.37108L52.1846 16.4473L54.5703 17.6416L61.4942 3.80272L63.0928 4.6035L59.5391 11.7051L62.0283 12.9511L66.8408 3.33299L68.5186 4.17188ZM76.1836 11.4482L75.1338 13.5449L69.8399 10.8955L62.8242 24.916L61.1475 24.0772L69.211 7.96094L76.1836 11.4482Z" fill="black"/>
</g>
<defs>
<clipPath id="clip0_2074_5016">
<rect width="76.1836" height="90.7012" fill="white"/>
</clipPath>
</defs>
</svg>
