<svg width="65" height="69" viewBox="0 0 65 69" fill="none" xmlns="http://www.w3.org/2000/svg">
<g clip-path="url(#clip0_2074_5028)">
<path d="M11.916 65.0849C13.8867 63.0791 15.6611 61.083 17.416 58.4043L19.0508 59.5869C17.0986 62.5664 15.1475 64.7178 12.8867 66.9717L11.7246 68.1289L0 56.3662L1.61816 54.7529L11.916 65.0849ZM26.3799 60.9658L24.8242 62.5156L14.919 52.5791L10.708 56.7773L9.36426 55.4287L13.5752 51.2314L7.82618 45.4638L9.38282 43.9121L26.3799 60.9658ZM31.2519 57.9697L29.6963 59.5215L11.3135 41.0781L12.8682 39.5283L31.2519 57.9697Z" fill="black"/>
<path d="M32.3375 33.4824C36.6431 36.9648 37.6255 41.3408 35.1939 44.3477C32.7427 47.3779 28.2769 47.3076 23.9712 43.8242C19.6646 40.3418 18.6636 35.9883 21.0923 32.9404C23.5474 29.9521 28.0318 29.999 32.3375 33.4824ZM25.3716 42.0938C28.6744 44.7647 31.9595 45.085 33.5982 43.0576C35.2388 41.0303 34.2398 37.8857 30.9371 35.2129C27.6334 32.541 24.3492 32.2207 22.6871 34.2314C21.0689 36.2764 22.0679 39.4209 25.3716 42.0938ZM48.5357 37.3125L47.0787 39.1133L26.7808 22.6924L28.2369 20.8936L48.5357 37.3125Z" fill="black"/>
<path d="M64.0176 14.127L62.7812 16.0469L50.5928 8.2002L47.2158 13.4443L53.8643 17.7246L47.3643 27.8193L32.6895 18.3711L33.9424 16.4248L39.6543 20.1035L43.6816 13.8496L37.9687 10.1709L39.1894 8.27539L45.6162 12.4141L48.9932 7.16797L40.8428 1.92188L42.0781 0L64.0176 14.127ZM51.043 18.5898L45.2324 14.8477L41.2051 21.1025L47.0166 24.8438L51.043 18.5898Z" fill="black"/>
</g>
<defs>
<clipPath id="clip0_2074_5028">
<rect width="64.0166" height="68.1289" fill="white"/>
</clipPath>
</defs>
</svg>
