<svg width="14" height="14" viewBox="0 0 14 14" fill="none" xmlns="http://www.w3.org/2000/svg">
<path d="M5 6.43853L6.92406 3.92463V2.75035C6.92406 2.33632 7.24273 2 7.63504 2C8.02735 2 8.34602 2.33632 8.34602 2.75035V5.24305H11.289C11.6813 5.24305 12 5.57937 12 5.99341C12 6.40744 11.6813 6.74376 11.289 6.74376H10.9583C11.3225 6.74376 11.6184 7.05605 11.6184 7.44041V7.45454C11.6184 7.83891 11.3225 8.1512 10.9583 8.1512H10.5995H10.6142C10.9904 8.1512 11.2957 8.47339 11.2957 8.87047C11.2957 9.26755 10.9904 9.58973 10.6142 9.58973H10.2915H10.3705C10.7387 9.58973 11.0386 9.90485 11.0386 10.2949C11.0386 10.6835 10.7401 11 10.3705 11H5V6.43853Z" stroke="#D9D9D9" stroke-miterlimit="10" stroke-linejoin="round"/>
<path d="M2 7C2 6.44772 2.44772 6 3 6H5V11H3C2.44772 11 2 10.5523 2 10V7Z" stroke="#D9D9D9"/>
</svg>
