<svg width="838" height="771" viewBox="0 0 838 771" fill="none" xmlns="http://www.w3.org/2000/svg">
<path d="M512.428 -119.286C526.981 -115.917 541.354 -112.046 555.375 -107.338L555.366 -107.282C751.739 -42.5334 871.017 153.391 829.146 352.167L829.146 352.168C828.795 353.853 828.4 355.539 828.003 357.233L828.003 357.234L828.002 357.24C827.606 358.929 827.209 360.626 826.855 362.323C826.154 365.694 825.276 369.067 824.395 372.454C823.338 376.514 822.284 380.397 821.055 384.277L821.052 384.285L821.05 384.292C765.334 581.915 601.121 725.758 404.8 769.922C404.947 769.823 405.102 769.719 405.263 769.61C407.036 768.412 409.622 766.626 412.882 764.273C419.4 759.567 428.609 752.594 439.377 743.519C460.912 725.371 488.687 698.813 513.644 665.177L514.445 664.097L513.133 664.391C453.482 677.746 389.785 678.761 325.91 664.729C100.499 615.194 -40.4174 399.488 11.1301 183.134L10.6437 183.018L11.1301 183.134C62.6793 -33.3962 287.188 -168.82 512.428 -119.286Z" stroke="#DFDFDF"/>
</svg>
