<svg width="62" height="68" viewBox="0 0 62 68" fill="none" xmlns="http://www.w3.org/2000/svg">
<path d="M40.9383 1.67871C39.9138 1.32105 38.8637 1.02725 37.8008 0.771775C21.4092 -2.97093 5.06883 7.26084 1.31669 23.624C-2.43545 39.9744 7.82211 56.2737 24.2265 60.0164C28.8751 61.0766 33.5109 61 37.8521 59.9909C34.228 65.062 29.7843 68 29.7843 68C44.1526 64.7171 56.1902 53.8211 60.2625 38.8248C60.3521 38.531 60.429 38.2372 60.5058 37.9306C60.5698 37.6751 60.6339 37.4196 60.6851 37.1642C60.7363 36.9087 60.8003 36.6532 60.8516 36.3977C63.8994 21.3758 55.2169 6.57105 40.9255 1.67871H40.9383Z" fill="#FFD72E"/>
<path d="M27.4596 24.0835L34.543 30.8127L27.4596 37.5418" stroke="white" stroke-width="3" stroke-linecap="round" stroke-linejoin="round"/>
</svg>
