<svg width="40" height="43" viewBox="0 0 40 43" fill="none" xmlns="http://www.w3.org/2000/svg">
<path d="M26.525 1.06154C25.8523 0.835367 25.1627 0.649585 24.4648 0.488034C13.7015 -1.87868 2.97184 4.59141 0.508052 14.9387C-1.95574 25.2779 4.77974 35.5848 15.5515 37.9516C18.6039 38.622 21.6479 38.5735 24.4985 37.9354C22.1188 41.1422 19.2009 43 19.2009 43C28.6356 40.9241 36.5399 34.034 39.2139 24.551C39.2728 24.3652 39.3232 24.1794 39.3737 23.9855C39.4157 23.824 39.4578 23.6624 39.4914 23.5009C39.525 23.3393 39.5671 23.1778 39.6007 23.0162C41.602 13.5171 35.9008 4.15523 26.5166 1.06154H26.525Z" fill="#3ECE9E"/>
</svg>
