<svg width="30" height="30" viewBox="0 0 30 30" fill="none" xmlns="http://www.w3.org/2000/svg">
<g clip-path="url(#clip0_860_2513)">
<path d="M23.6219 25.375L16.6219 18.375C15.9969 18.875 15.2719 19.275 14.4594 19.5625C13.6469 19.85 12.7844 20 11.8594 20C9.58437 20 7.67187 19.2125 6.09687 17.6375C4.52187 16.0625 3.73438 14.1375 3.73438 11.875C3.73438 9.6125 4.53437 7.6875 6.10937 6.1125C7.68437 4.5375 9.59687 3.75 11.8719 3.75C14.1469 3.75 16.0594 4.5375 17.6344 6.1125C19.2094 7.6875 19.9969 9.6125 19.9969 11.875C19.9969 12.7875 19.8469 13.6625 19.5594 14.475C19.2719 15.2875 18.8719 16.0125 18.3719 16.6375L25.3719 23.6375C25.8594 24.125 25.8594 24.9 25.3719 25.3875C24.8844 25.875 24.1094 25.875 23.6219 25.3875V25.375ZM11.8719 17.5C13.4344 17.5 14.7594 16.95 15.8594 15.8625C16.9594 14.775 17.4969 13.4375 17.4969 11.875C17.4969 10.3125 16.9469 8.9875 15.8594 7.8875C14.7719 6.7875 13.4344 6.25 11.8719 6.25C10.3094 6.25 8.98437 6.8 7.88437 7.8875C6.78437 8.975 6.24687 10.3125 6.24687 11.875C6.24687 13.4375 6.79687 14.7625 7.88437 15.8625C8.97187 16.9625 10.3094 17.5 11.8719 17.5Z" fill="black"/>
</g>
<defs>
<clipPath id="clip0_860_2513">
<rect width="21.9875" height="21.9875" fill="white" transform="translate(3.75 3.75)"/>
</clipPath>
</defs>
</svg>
